<svg width="83" height="72" viewBox="0 0 83 72" fill="none" xmlns="http://www.w3.org/2000/svg">
<path fill-rule="evenodd" clip-rule="evenodd" d="M46.7242 71.1739C46.8633 69.9985 47.1947 69.2341 47.401 68.2149C47.6866 66.8026 48.6255 63.0456 48.1788 61.7696C47.8742 60.8996 46.7715 60.4787 45.7295 60.7928C44.5366 59.4187 44.7944 59.9282 43.0051 59.8476C42.3069 58.7187 41.7144 59.2943 40.5136 59.0954C40.4492 57.7087 40.637 55.1643 40.4547 54.0061C40.2075 52.4358 37.9746 52.3685 37.2129 53.3321C36.5493 54.1719 36.9473 61.4105 36.8934 63.1296C35.4106 63.9831 34.9154 64.571 35.866 66.5927C36.3931 67.7136 37.3217 68.8953 38.0376 69.6996C38.3234 70.0204 39.1065 70.885 39.3918 71.0484C40.0366 71.4177 46.0581 71.2833 46.7242 71.1739" fill="white"/>
<path fill-rule="evenodd" clip-rule="evenodd" d="M36.5053 61.8834C36.4964 58.6605 36.7139 59.6939 35.242 59.0222C28.0737 55.751 28.732 45.1447 36.3308 42.957C43.5182 40.8875 48.9832 48.2162 46.6039 54.2484C45.7703 56.3618 44.7963 57.2565 43.1665 58.482L44.2875 59.5266C45.0796 59.4463 45.7633 59.5353 46.2963 59.0466C47.4604 57.9794 48.549 56.0991 49.0419 54.5892C49.8889 51.9933 49.6504 48.8403 48.5522 46.5312C43.4597 35.8212 27.545 39.6332 27.7814 51.4325C27.8852 56.6092 32.0362 61.516 36.5053 61.8834Z" fill="white"/>
<path fill-rule="evenodd" clip-rule="evenodd" d="M36.4907 58.0316C36.4943 57.5588 36.5501 56.1381 36.4657 55.7637C36.2808 54.9446 34.1864 54.4427 34.0446 51.5922C33.7631 45.9304 41.3746 44.5693 43.1938 49.6375C43.6166 50.8151 43.5695 52.1612 43.063 53.2501C42.4476 54.5727 41.9876 54.7644 41.0045 55.5245L40.9786 57.9682C42.3461 58.0472 44.1035 56.1655 44.7235 55.2361C45.5818 53.9495 46.1428 52.0431 45.7943 50.0785C45.2086 46.7761 42.4868 44.1065 38.8401 44.0614C32.8811 43.9878 29.7685 50.7399 32.7897 55.2295C33.4737 56.2461 34.9172 57.7449 36.4907 58.0316Z" fill="white"/>
<path fill-rule="evenodd" clip-rule="evenodd" d="M28.0835 14.7307C28.0835 13.7696 28.0949 12.8076 28.0951 11.8461C28.0957 9.58034 28.3913 9.1202 28.4981 6.56319C28.5689 4.86437 28.859 4.75346 28.7982 3.7887C27.2 4.10401 27.0644 4.26774 26.8542 5.03264C26.7569 5.38662 26.571 7.12236 26.5338 7.67312C26.0205 15.2927 26.2945 21.4429 27.7632 29.0192C28.1545 31.0365 30.399 40.8153 31.467 41.7719C31.7825 41.1592 31.1052 39.622 30.8739 38.8491C30.4418 37.4049 29.3091 30.5116 29.169 29.1582C28.6601 24.2386 28.0836 20.1776 28.0836 14.7307" fill="white"/>
<path fill-rule="evenodd" clip-rule="evenodd" d="M50.9429 37.9232C51.0781 37.7049 51.0353 37.7606 51.1734 37.5115L51.8344 36.5514C52.0576 36.2607 52.0907 36.1333 52.2635 35.8634L62.3917 22.4239C62.2648 22.1479 62.1592 21.9781 61.933 21.7542C61.5257 21.3505 61.6575 21.5052 61.1146 21.303C60.3769 21.7147 59.5004 23.1156 58.8487 23.8649L56.9589 26.2902C55.7566 27.8488 54.9599 29.2525 54.1984 30.2656L50.7125 35.5762C50.3845 36.0095 50.5111 35.7547 50.2569 36.2569C50.0902 36.5863 50.1021 36.613 49.9227 36.8965L47.4133 41.0956C47.1792 41.5088 46.8487 41.9375 46.6649 42.4563C47.0153 42.9566 47.0836 42.7228 47.4925 43.2857L50.9429 37.9232Z" fill="white"/>
<path fill-rule="evenodd" clip-rule="evenodd" d="M43.0837 39.6288L44.6224 35.7447C45.1667 34.5153 45.868 33.1207 46.3227 31.981L47.5303 29.5046C48.8316 27.4041 49.9124 25.1157 51.0939 23.0016L56.3193 14.6003C56.6467 14.1403 58.5802 11.4777 58.5292 11.2069C58.3306 10.8408 57.8014 10.4974 57.4288 10.2922L49.9632 22.0403C49.1368 24.0149 48.7979 24.4127 48.1434 25.8382L43.4033 37.4475C42.509 40.2493 42.8202 39.3558 43.0837 39.6288Z" fill="white"/>
<path fill-rule="evenodd" clip-rule="evenodd" d="M38.8695 39.438C38.9641 37.4662 39.7866 33.3501 39.8744 31.7213C39.941 30.4841 40.0755 30.1864 40.2865 29.2102C40.3806 28.7759 40.3456 28.3509 40.4087 27.8889L41.3394 23.0268C41.5448 22.0344 42.1159 20.3229 42.0234 19.4056L40.6792 19.4542C40.4273 19.9651 40.1579 21.2082 39.9986 21.8843C39.3548 24.6156 37.3719 37.605 37.6066 39.5182L38.8695 39.438Z" fill="white"/>
<path fill-rule="evenodd" clip-rule="evenodd" d="M50.3765 48.0465C50.8577 47.8907 50.894 47.7114 51.1709 47.4252L51.5864 47.0317C51.6651 46.9534 51.7778 46.8207 51.8932 46.7037L57.9221 41.6682C58.3685 41.2618 58.8725 40.9108 59.4197 40.4382C59.8106 40.1007 60.4999 39.601 61.008 39.2859C61.4897 38.9872 62.258 38.4669 62.5512 38.1297C62.4288 37.411 61.5934 36.6575 61.4344 36.6323C60.9115 36.549 57.7538 39.1752 57.1784 39.7913L51.8891 44.7838C51.5403 45.1608 51.4047 45.2061 51.1573 45.4807C49.8518 46.9291 49.6785 46.8886 50.3765 48.0465Z" fill="white"/>
<path fill-rule="evenodd" clip-rule="evenodd" d="M8.43604 48.1144C8.48091 49.6379 9.17443 49.4462 11.605 48.8872C11.8393 48.8333 11.8172 48.8322 11.9784 48.7827C12.0146 48.7716 12.0546 48.753 12.0903 48.742L12.7123 48.6097C15.0043 48.4403 16.5082 48.6966 18.2933 49.0992C19.9101 49.4638 18.9433 49.4844 20.446 49.8101C20.7536 49.8768 22.7152 50.8058 23.36 51.3658L25.2447 52.5093C26.212 53.017 26.2843 52.5904 26.3435 52.5521C26.2553 51.6068 23.6935 50.409 22.8726 49.9373C21.1225 48.9317 18.2193 47.6518 16.2544 47.4486C12.6086 47.0716 11.534 47.6001 8.43604 48.1144" fill="white"/>
<path fill-rule="evenodd" clip-rule="evenodd" d="M26.9794 44.0746L21.1875 37.6623C21.1623 37.6404 21.1258 37.6104 21.1001 37.5891L20.7325 37.3074C20.4128 37.0331 20.3193 36.8692 20.0236 36.5934C19.3458 35.962 17.4774 34.1825 16.5442 33.9539L15.814 35.2442C15.9599 35.3576 15.9559 35.6091 16.5194 35.9052C16.9616 36.1375 17.0649 36.1056 17.4568 36.4329C17.8007 36.7201 17.8704 36.9179 18.1628 37.1622C18.4386 37.3924 18.6964 37.5001 19.0011 37.7645L21.2803 39.8091C21.6935 40.1293 21.7046 40.0414 22.108 40.4376C23.063 41.3751 24.1392 42.4813 25.0002 43.3175L27.6197 46.1942C28.4781 45.8401 27.5938 44.9963 27.3002 44.5454C27.0741 44.1978 27.2299 44.3788 26.9794 44.0746Z" fill="white"/>
<path fill-rule="evenodd" clip-rule="evenodd" d="M33.0702 16.1739L31.7925 16.2737C31.4432 16.3797 31.5813 16.3242 31.3523 16.4939C31.5677 17.4355 32.1318 17.2623 32.1832 17.9362C32.0403 18.7016 31.7403 18.6608 31.6287 19.5246C32.3492 19.477 32.8696 19.1353 33.7153 19.2969C34.1639 19.3829 34.144 19.4219 34.5009 19.7251C34.7624 19.9471 34.7001 20.0224 35.0384 20.0707L34.8786 18.028C35.473 17.8302 35.9339 17.7562 36.1186 16.9746C35.024 16.4448 34.7567 16.893 34.3229 15.5614C34.0252 14.6472 34.0778 14.9671 33.8707 14.7592C33.8707 14.7592 33.7992 14.4795 33.3895 15.3837C33.248 15.696 33.2709 15.8206 33.0702 16.1739Z" fill="white"/>
<path fill-rule="evenodd" clip-rule="evenodd" d="M72.5974 28.9375C72.6424 28.1204 72.3341 27.6938 72.5012 27.117C72.7005 26.4286 72.982 26.7407 73.4944 26.1102C72.4482 25.3401 72.3093 26.2505 71.4571 24.7673C71.3324 24.5504 71.1819 24.2617 71.0503 24.0872C70.5669 24.4837 70.5342 25.3828 70.2567 25.9542L68.6788 26.2706C68.8278 26.9246 69.1348 26.909 69.6938 27.2321C69.9203 28.2418 69.7019 28.3451 69.605 29.1654C70.6212 28.9215 70.4833 28.0322 71.9947 28.6517C72.3297 28.7892 72.2962 28.8378 72.5974 28.9375Z" fill="white"/>
<path fill-rule="evenodd" clip-rule="evenodd" d="M4.7041 39.09C5.2379 39.9824 5.42721 39.4146 5.55762 40.2196C5.6288 40.6588 5.339 41.3536 5.29072 41.8613C7.85567 40.7903 6.54114 41.7051 8.19429 41.7966L7.86342 40.0515L8.52142 39.542C8.74872 39.3809 8.94464 39.2775 9.22249 39.09C8.94123 38.7038 9.01141 38.7646 8.52102 38.6213C6.97458 38.1695 7.8532 38.0262 7.10706 36.9476C6.95208 37.0662 6.90493 36.9384 6.59583 37.6486C5.86839 39.3188 5.7522 38.2482 4.7041 39.09Z" fill="white"/>
<path fill-rule="evenodd" clip-rule="evenodd" d="M40.4004 4.40286C39.4419 5.02633 39.0745 5.10279 39.0472 5.71265L40.6005 5.74069L41.3584 7.0064C42.2872 6.18868 41.1985 5.62557 42.8323 5.52394C43.132 5.50517 43.3822 5.53609 43.7137 5.50631C43.7415 4.94854 43.4244 4.79543 43.1361 4.55404C43.0966 3.71348 43.3234 3.36498 43.3396 2.69817C42.3272 2.73015 42.3332 3.12045 41.7139 3.12633C41.1157 3.13232 40.8127 2.65142 40.0675 2.52722L40.4004 4.40286Z" fill="white"/>
<path fill-rule="evenodd" clip-rule="evenodd" d="M50.4656 55.3677C51.3793 55.2739 50.9331 55.2875 51.4221 55.0571C52.3906 54.601 54.4661 54.3534 55.527 54.235C56.1163 54.1696 56.6523 54.1667 57.1708 53.832L57.0841 53.0602C56.3442 52.9122 53.8568 53.3286 53.1508 53.4982C52.4504 53.6665 52.196 53.8606 51.4183 54.0732C50.6306 54.2887 50.4964 54.4368 50.4656 55.3677Z" fill="white"/>
<path fill-rule="evenodd" clip-rule="evenodd" d="M64.4797 44.8028C64.785 44.3073 65.3623 43.047 65.1208 42.3058L62.7896 42.2081C62.4975 42.8458 62.3296 43.323 62.4318 44.1842C62.7954 44.2739 63.2741 44.3527 63.577 44.4784C64.0729 44.6841 63.8022 44.7551 64.4797 44.8028Z" fill="white"/>
<path fill-rule="evenodd" clip-rule="evenodd" d="M22.2972 33.9307C22.3655 34.7976 22.2675 34.702 22.1922 35.369C23.0744 35.2021 22.0126 35.1012 24.0426 35.034L24.0801 33.9469L24.7865 33.6419C24.598 32.9479 24.4954 33.3208 24.0086 32.9763C23.5308 32.6383 23.7803 32.5245 23.2933 32.1058C22.2512 33.9447 23.0107 32.5923 21.7476 33.3322C22.0541 33.9729 21.6319 33.4393 22.2973 33.9307" fill="white"/>
<path fill-rule="evenodd" clip-rule="evenodd" d="M63.3575 29.838C63.5883 29.3557 64.1249 28.9276 63.8383 28.1871C63.6102 27.5975 62.8117 27.227 62.1567 27.4591C61.3287 27.7525 60.5847 30.142 63.3575 29.838Z" fill="white"/>
<path fill-rule="evenodd" clip-rule="evenodd" d="M20.7293 26.4875C21.434 26.4409 22.0736 25.7012 22.332 25.3083C22.1819 24.7604 22.0859 24.7955 21.8126 24.3933C21.4891 23.917 21.6333 23.8995 21.0498 23.5667C20.4839 23.7864 20.5434 23.7779 20.1742 24.2644C19.2934 25.4241 19.7409 25.1371 20.7293 26.4875Z" fill="white"/>
<path fill-rule="evenodd" clip-rule="evenodd" d="M40.4869 16.7701L42.8967 17.3406L42.94 15.3332C42.5278 15.1317 41.2955 14.906 40.7614 15.0159C40.5539 15.5744 40.4087 16.1263 40.4869 16.7701" fill="white"/>
<path fill-rule="evenodd" clip-rule="evenodd" d="M70.5881 51.7536C70.1872 50.6863 70.3578 50.8897 70.5007 49.8771C69.9557 49.9331 69.9796 50.157 69.4468 50.1905C68.8772 50.2263 68.8967 50.0486 68.2995 49.9596C68.2098 51.2448 68.4114 50.9103 67.764 51.7521C67.958 51.9319 67.8706 51.8732 68.2183 52.054L68.9079 52.4396C68.923 52.4528 69.0091 52.7103 69.0572 52.5965C69.0678 52.5713 69.1019 52.652 69.127 52.6769C69.5207 51.9083 69.3758 51.8009 70.5881 51.7536Z" fill="white"/>
<path fill-rule="evenodd" clip-rule="evenodd" d="M9.23755 24.8276C9.55533 25.1994 9.99258 25.7199 10.8464 25.351C11.1059 25.2389 11.6764 24.6294 11.4987 23.9692C11.1754 22.7689 8.99316 22.6567 9.23755 24.8276Z" fill="white"/>
<path fill-rule="evenodd" clip-rule="evenodd" d="M14.0696 34.5209C14.2663 33.4567 14.4401 33.3485 14.3897 32.7477C13.8315 32.3861 13.2432 32.248 12.4957 32.1984C12.3068 32.6709 11.9559 33.3365 12.0019 33.8878C12.3926 34.144 12.5904 34.1272 13.1202 34.3273L13.283 34.4071C13.2979 34.4138 13.3329 34.4373 13.3473 34.4429L14.0696 34.5209Z" fill="white"/>
<path fill-rule="evenodd" clip-rule="evenodd" d="M27.3877 2.13961L28.9815 2.17086C29.0996 1.46458 29.3759 0.758772 29.1265 0.0775364C27.2728 -0.235303 26.679 0.387971 27.3877 2.13961" fill="white"/>
<path fill-rule="evenodd" clip-rule="evenodd" d="M58.7728 8.00189C59.1412 8.46358 59.9228 9.03043 60.473 9.09673C60.9956 8.15634 62.2093 7.90627 59.8321 6.49011C59.3867 6.74125 59.0975 7.27391 58.8805 7.74087L58.7728 8.00189Z" fill="white"/>
<path fill-rule="evenodd" clip-rule="evenodd" d="M34.9918 31.1662C35.3327 30.5713 35.6622 30.326 35.038 29.7435C34.5699 29.3069 34.0933 28.8938 33.5494 28.8607C33.2319 29.4242 33.0195 30.4044 33.1667 31.1613L34.9918 31.166L34.9918 31.1662Z" fill="white"/>
<path fill-rule="evenodd" clip-rule="evenodd" d="M64.6397 36.0469C65.1073 35.8343 64.7066 36.0185 65.052 35.8139C66.0257 35.2371 66.0919 35.1139 65.4559 34.2756C65.3316 34.1117 65.2958 34.0445 65.1521 33.927C64.3121 33.2394 63.6032 34.3415 63.3761 34.9237C63.8551 35.6082 63.7932 35.4836 64.6397 36.0469Z" fill="white"/>
<path fill-rule="evenodd" clip-rule="evenodd" d="M51.9691 61.4111C50.1528 61.2866 49.8872 62.4355 50.9086 63.544C52.3882 63.5826 52.7726 62.5402 51.9691 61.4111Z" fill="white"/>
<path fill-rule="evenodd" clip-rule="evenodd" d="M61.7396 54.4498C61.8132 53.6967 62.1153 53.6539 61.9395 52.8721C61.3639 52.6435 60.5202 52.6771 59.8925 52.7722C59.7619 53.5437 59.8244 53.7459 60.071 54.4417L61.7396 54.4498Z" fill="white"/>
<path fill-rule="evenodd" clip-rule="evenodd" d="M4.76392 49.0269C5.02267 49.8629 4.71337 49.6676 5.50418 50.5457C6.43489 50.5008 6.30808 50.3447 7.0205 50.2008C7.00668 49.5334 6.86458 49.0231 6.65691 48.5298C5.92439 48.5358 5.33477 48.8397 4.76392 49.0269Z" fill="white"/>
<path fill-rule="evenodd" clip-rule="evenodd" d="M81.3069 36.3085C81.2863 36.3505 81.2697 36.4074 81.2596 36.441C81.2496 36.4745 81.2295 36.5342 81.2176 36.5754C81.204 36.6219 81.1684 36.7968 81.1518 36.8475C80.8553 37.7472 80.8345 36.987 80.5175 37.8089C80.8455 38.0012 81.2172 38.181 81.4673 38.3302C82.1759 38.0449 81.9358 38.0326 82.8413 38.0917L83.0001 36.4392C81.5537 36.6484 82.5687 36.6897 81.3069 36.3085Z" fill="white"/>
<path fill-rule="evenodd" clip-rule="evenodd" d="M70.8867 39.7329C71.0459 40.2099 71.4709 40.5837 71.8519 40.9573L72.6261 40.6371C72.8973 40.4859 73.0479 40.3723 73.2439 40.2137C73.1727 39.5192 72.8479 39.0354 72.3327 38.6133L70.8867 39.7329Z" fill="white"/>
<path fill-rule="evenodd" clip-rule="evenodd" d="M21.5295 46.2418C21.8716 45.747 22.2405 45.4817 22.3636 44.8022L21.2091 44.1575C20.9388 44.3492 20.801 44.46 20.5962 44.7208C20.2195 45.2006 20.3028 44.8595 20.2827 45.6619L21.5295 46.2418Z" fill="white"/>
<path fill-rule="evenodd" clip-rule="evenodd" d="M43.2676 27.427C43.4396 27.7 43.3452 27.5643 43.5434 27.7643C43.9501 27.3369 44.1404 27.4679 44.6594 27.1477C44.9172 26.9885 44.7821 27.0723 44.9541 26.9114C44.8241 26.4223 44.7385 26.2408 44.5977 25.7933C44.1934 25.819 43.5105 25.9161 43.0997 26.0206L43.0001 26.2949C42.9452 26.6288 42.956 26.932 43.2676 27.427Z" fill="white"/>
<path fill-rule="evenodd" clip-rule="evenodd" d="M30.0243 63.7082C30.4015 63.2764 30.5689 63.0736 30.3895 62.2784C29.0925 61.5201 28.0541 62.4575 29.0747 63.7626L30.0243 63.7082Z" fill="white"/>
<path fill-rule="evenodd" clip-rule="evenodd" d="M31.3749 9.21253L32.4065 9.93537C33.0218 9.76483 33.2425 9.54714 33.3662 8.96246C32.9749 8.45477 32.8403 8.13853 31.948 8.01453C31.5812 8.54866 31.6329 8.4071 31.3749 9.21253Z" fill="white"/>
<path fill-rule="evenodd" clip-rule="evenodd" d="M47.5914 9.4972C47.6319 9.51723 47.6938 9.50186 47.7163 9.55075C47.7385 9.59883 47.8114 9.59049 47.8424 9.59376C48.7109 9.68744 47.3328 9.64143 48.1048 9.61586C48.1334 9.61519 48.6571 9.51804 48.7877 9.48472C49.209 9.37721 48.9654 9.53446 49.2727 9.31264C49.6499 9.04046 49.4648 9.2076 49.5797 8.80141C49.3126 8.47434 48.5356 8.02041 47.8729 8.05333C47.7734 8.23996 47.6614 8.44723 47.5738 8.75427C47.3558 9.51857 47.5835 9.47944 47.5914 9.4972" fill="white"/>
<path fill-rule="evenodd" clip-rule="evenodd" d="M2.22707 28.2776C2.17425 27.4083 2.19302 27.7653 2.38793 27.1076C1.57989 27.0262 2.17993 27.1886 1.48621 27.231C0.71035 27.2785 1.23974 27.1651 0.578805 27.0936C0.576322 28.3512 0.55403 27.9315 0 28.5619C1.28254 28.8787 1.05411 28.347 2.22707 28.2776Z" fill="white"/>
<path fill-rule="evenodd" clip-rule="evenodd" d="M55.8524 34.7816C55.7043 35.6326 55.8745 35.6958 56.1768 36.2879L57.3142 36.0125L57.0787 34.4557C56.6143 34.4398 56.2262 34.6029 55.8524 34.7816Z" fill="white"/>
<path fill-rule="evenodd" clip-rule="evenodd" d="M62.5256 19.5601C63.6483 19.6685 63.7918 19.4857 64.6767 19.4355C64.4226 18.811 64.1939 18.642 63.6181 18.1223C63.596 18.1022 63.5525 18.0628 63.5188 18.0341C63.4794 18.0592 63.4194 18.0507 63.4022 18.1116C63.3253 18.3848 62.6541 18.4223 62.5256 19.5601Z" fill="white"/>
<path fill-rule="evenodd" clip-rule="evenodd" d="M19.1491 57.8934C19.7276 57.6996 19.5608 57.9222 19.8648 57.1999C19.1654 56.6907 18.999 56.8554 18.1121 56.5878L18.155 58.188L19.1491 57.8934Z" fill="white"/>
<path fill-rule="evenodd" clip-rule="evenodd" d="M55.6656 23.244C57.4604 22.3582 56.9045 22.8278 56.9948 22.1032C56.5066 21.8089 56.0039 21.9413 55.3021 21.9608C55.2629 22.3998 55.1792 22.4397 55.5159 23.0503L55.6656 23.244Z" fill="white"/>
</svg>
