<svg width="41" height="37" viewBox="0 0 41 37" fill="none" xmlns="http://www.w3.org/2000/svg">
<path fill-rule="evenodd" clip-rule="evenodd" d="M18.0323 30.5689C18.0279 28.9768 18.1354 29.4873 17.4083 29.1555C13.8673 27.5396 14.1925 22.3004 17.9461 21.2197C21.4966 20.1974 24.1961 23.8176 23.0208 26.7974C22.609 27.8413 22.1279 28.2833 21.3228 28.8887L21.8765 29.4047C22.2679 29.365 22.6056 29.409 22.8689 29.1676C23.4439 28.6404 23.9816 27.7116 24.2251 26.9657C24.6435 25.6834 24.5257 24.1259 23.9832 22.9853C21.4677 17.6948 13.6062 19.5778 13.723 25.4064C13.7742 27.9636 15.8247 30.3874 18.0323 30.5689Z" fill="black"/>
<path fill-rule="evenodd" clip-rule="evenodd" d="M18.0257 28.6656C18.0275 28.4321 18.055 27.7303 18.0133 27.5453C17.922 27.1407 16.8874 26.8928 16.8174 25.4848C16.6783 22.6879 20.4382 22.0156 21.3369 24.5191C21.5457 25.1008 21.5224 25.7658 21.2722 26.3037C20.9682 26.957 20.741 27.0517 20.2554 27.4272L20.2426 28.6343C20.9181 28.6733 21.7862 27.7438 22.0925 27.2847C22.5165 26.6492 22.7936 25.7075 22.6214 24.737C22.3321 23.1057 20.9876 21.787 19.1862 21.7647C16.2426 21.7283 14.7051 25.0637 16.1975 27.2815C16.5354 27.7836 17.2484 28.524 18.0257 28.6656Z" fill="black"/>
<path fill-rule="evenodd" clip-rule="evenodd" d="M13.8721 7.27693C13.8721 6.80214 13.8777 6.32696 13.8778 5.85197C13.8781 4.73275 14.0241 4.50545 14.0768 3.24236C14.1118 2.40318 14.2551 2.34839 14.2251 1.87183C13.4356 2.02758 13.3686 2.10846 13.2648 2.48631C13.2167 2.66116 13.1249 3.51857 13.1065 3.79063C12.853 7.55453 12.9883 10.5926 13.7138 14.335C13.9071 15.3316 15.0159 20.162 15.5434 20.6346C15.6992 20.3319 15.3647 19.5726 15.2504 19.1908C15.037 18.4774 14.4775 15.0723 14.4083 14.4038C14.1569 11.9736 13.8721 9.96752 13.8721 7.27693" fill="black"/>
<path fill-rule="evenodd" clip-rule="evenodd" d="M25.1645 18.7329C25.2313 18.6251 25.2101 18.6526 25.2784 18.5296L25.6049 18.0553C25.7151 17.9117 25.7315 17.8488 25.8168 17.7154L30.8199 11.0767C30.7572 10.9403 30.7051 10.8565 30.5933 10.7459C30.3921 10.5464 30.4572 10.6228 30.189 10.5229C29.8247 10.7263 29.3917 11.4183 29.0698 11.7885L28.1362 12.9865C27.5423 13.7564 27.1488 14.4498 26.7726 14.9502L25.0507 17.5736C24.8887 17.7876 24.9512 17.6617 24.8256 17.9098C24.7433 18.0725 24.7491 18.0857 24.6605 18.2258L23.421 20.3C23.3053 20.5041 23.142 20.7159 23.0513 20.9722C23.2243 21.2193 23.2581 21.1038 23.4601 21.3819L25.1645 18.7329Z" fill="black"/>
<path fill-rule="evenodd" clip-rule="evenodd" d="M21.282 19.575L22.0421 17.6564C22.311 17.0491 22.6574 16.3602 22.882 15.7972L23.4785 14.5739C24.1213 13.5364 24.6552 12.4059 25.2389 11.3616L27.8201 7.21156C27.9818 6.98436 28.9369 5.66908 28.9117 5.53529C28.8136 5.35447 28.5522 5.18486 28.3682 5.0835L24.6803 10.8867C24.2721 11.8621 24.1047 12.0587 23.7814 12.7628L21.4399 18.4975C20.9981 19.8815 21.1519 19.4402 21.282 19.575" fill="black"/>
<path fill-rule="evenodd" clip-rule="evenodd" d="M19.2002 19.4814C19.247 18.5074 19.6532 16.4741 19.6966 15.6696C19.7295 15.0584 19.7959 14.9114 19.9002 14.4292C19.9466 14.2146 19.9294 14.0047 19.9606 13.7765L20.4203 11.3747C20.5218 10.8845 20.8039 10.039 20.7581 9.58594L20.0942 9.60995C19.9697 9.86232 19.8367 10.4763 19.758 10.8103C19.44 12.1595 18.4604 18.576 18.5764 19.521L19.2002 19.4814Z" fill="black"/>
<path fill-rule="evenodd" clip-rule="evenodd" d="M24.8851 23.7335C25.1228 23.6565 25.1407 23.568 25.2775 23.4266L25.4828 23.2322C25.5217 23.1935 25.5773 23.128 25.6343 23.0702L28.6124 20.5828C28.8329 20.382 29.0819 20.2087 29.3522 19.9752C29.5453 19.8085 29.8858 19.5617 30.1368 19.406C30.3747 19.2584 30.7543 19.0014 30.8991 18.8349C30.8386 18.4799 30.426 18.1076 30.3474 18.0952C30.0891 18.0541 28.5293 19.3513 28.2451 19.6557L25.6323 22.1218C25.46 22.3081 25.393 22.3304 25.2708 22.4661C24.6259 23.1816 24.5403 23.1615 24.8851 23.7335" fill="black"/>
<path fill-rule="evenodd" clip-rule="evenodd" d="M4.16699 23.7674C4.18916 24.52 4.53174 24.4253 5.73237 24.1492C5.84814 24.1226 5.83719 24.122 5.91685 24.0976C5.93473 24.0921 5.95445 24.0829 5.9721 24.0775L6.27936 24.0121C7.41157 23.9284 8.15443 24.055 9.03625 24.2539C9.83492 24.434 9.35733 24.4442 10.0996 24.6051C10.2516 24.638 11.2205 25.0969 11.5391 25.3736L12.4701 25.9384C12.9479 26.1892 12.9836 25.9785 13.0128 25.9596C12.9693 25.4926 11.7038 24.9009 11.2983 24.6679C10.4338 24.1712 8.99967 23.5389 8.02905 23.4386C6.22813 23.2523 5.6973 23.5134 4.16699 23.7674" fill="black"/>
<path fill-rule="evenodd" clip-rule="evenodd" d="M13.3274 21.7719L10.4664 18.6044C10.454 18.5935 10.4359 18.5787 10.4232 18.5682L10.2417 18.429C10.0837 18.2935 10.0375 18.2126 9.89149 18.0763C9.55666 17.7644 8.6337 16.8854 8.17274 16.7725L7.81201 17.4099C7.88412 17.4659 7.88214 17.5901 8.1605 17.7364C8.37893 17.8511 8.42995 17.8354 8.62351 17.9971C8.79342 18.1389 8.82782 18.2366 8.97226 18.3573C9.10852 18.471 9.23584 18.5242 9.38639 18.6548L10.5122 19.6648C10.7163 19.823 10.7219 19.7795 10.9211 19.9752C11.3928 20.4384 11.9245 20.9848 12.3498 21.3979L13.6438 22.8189C14.0678 22.644 13.631 22.2271 13.4859 22.0044C13.3742 21.8327 13.4512 21.9221 13.3274 21.7719" fill="black"/>
<path fill-rule="evenodd" clip-rule="evenodd" d="M16.3354 7.98976L15.7043 8.03904C15.5317 8.09142 15.6 8.06401 15.4868 8.14779C15.5932 8.61295 15.8719 8.52738 15.8973 8.86027C15.8267 9.23838 15.6785 9.21819 15.6233 9.64492C15.9793 9.62137 16.2363 9.45258 16.6541 9.53244C16.8757 9.57489 16.8659 9.59416 17.0421 9.74394C17.1713 9.85362 17.1406 9.89082 17.3077 9.91467L17.2287 8.90563C17.5223 8.80789 17.75 8.77134 17.8413 8.38529C17.3005 8.12358 17.1685 8.34498 16.9542 7.68719C16.8071 7.23559 16.8331 7.39362 16.7308 7.29094C16.7308 7.29094 16.6955 7.15276 16.4932 7.59942C16.4232 7.75369 16.4345 7.8152 16.3354 7.98976Z" fill="black"/>
<path fill-rule="evenodd" clip-rule="evenodd" d="M35.8614 14.2942C35.8837 13.8905 35.7314 13.6798 35.8139 13.3949C35.9124 13.0548 36.0514 13.209 36.3045 12.8975C35.7878 12.5171 35.7191 12.9668 35.2982 12.2341C35.2366 12.127 35.1622 11.9844 35.0972 11.8982C34.8584 12.0941 34.8423 12.5382 34.7052 12.8205L33.9258 12.9767C33.9994 13.2998 34.151 13.2921 34.4271 13.4517C34.539 13.9505 34.4311 14.0015 34.3833 14.4067C34.8853 14.2862 34.8171 13.847 35.5637 14.153C35.7292 14.2209 35.7127 14.2449 35.8614 14.2942Z" fill="black"/>
<path fill-rule="evenodd" clip-rule="evenodd" d="M2.32373 19.3097C2.58741 19.7506 2.68093 19.4701 2.74535 19.8677C2.78051 20.0847 2.63735 20.4279 2.61351 20.6787C3.88053 20.1497 3.23118 20.6015 4.0478 20.6467L3.88435 19.7847L4.20939 19.533C4.32167 19.4534 4.41845 19.4024 4.5557 19.3097C4.41677 19.119 4.45143 19.149 4.20919 19.0782C3.44529 18.855 3.87931 18.7842 3.51073 18.2515C3.43418 18.31 3.41089 18.2469 3.2582 18.5977C2.89886 19.4228 2.84146 18.8939 2.32373 19.3097" fill="black"/>
<path fill-rule="evenodd" clip-rule="evenodd" d="M19.957 2.17505C19.4835 2.48303 19.302 2.5208 19.2886 2.82206L20.0558 2.83591L20.4302 3.46114C20.889 3.0572 20.3512 2.77904 21.1583 2.72884C21.3063 2.71957 21.4299 2.73484 21.5937 2.72013C21.6074 2.44461 21.4508 2.36897 21.3084 2.24973C21.2888 1.83452 21.4009 1.66237 21.4089 1.33298C20.9088 1.34878 20.9118 1.54157 20.6058 1.54448C20.3104 1.54744 20.1607 1.30989 19.7926 1.24854L19.957 2.17505Z" fill="black"/>
<path fill-rule="evenodd" clip-rule="evenodd" d="M24.9292 27.3501C25.3805 27.3038 25.1602 27.3105 25.4017 27.1967C25.8801 26.9714 26.9054 26.8491 27.4294 26.7906C27.7205 26.7583 27.9853 26.7569 28.2414 26.5915L28.1986 26.2103C27.8331 26.1371 26.6044 26.3428 26.2556 26.4266C25.9096 26.5097 25.784 26.6057 25.3998 26.7107C25.0107 26.8171 24.9444 26.8903 24.9292 27.3501" fill="black"/>
<path fill-rule="evenodd" clip-rule="evenodd" d="M31.8516 22.1313C32.0025 21.8865 32.2876 21.264 32.1683 20.8978L31.0168 20.8496C30.8725 21.1646 30.7896 21.4003 30.8401 21.8257C31.0197 21.8701 31.2561 21.909 31.4057 21.9711C31.6507 22.0727 31.517 22.1078 31.8516 22.1313Z" fill="black"/>
<path fill-rule="evenodd" clip-rule="evenodd" d="M11.0142 16.7611C11.0479 17.1893 10.9995 17.1421 10.9623 17.4716C11.3981 17.3891 10.8736 17.3393 11.8764 17.3061L11.8949 16.7691L12.2439 16.6184C12.1507 16.2756 12.1 16.4598 11.8596 16.2896C11.6235 16.1226 11.7468 16.0664 11.5062 15.8596C10.9915 16.768 11.3666 16.0999 10.7427 16.4654C10.8941 16.7819 10.6855 16.5183 11.0142 16.7611" fill="black"/>
<path fill-rule="evenodd" clip-rule="evenodd" d="M31.2974 14.7395C31.4114 14.5013 31.6765 14.2898 31.5349 13.924C31.4222 13.6328 31.0278 13.4497 30.7042 13.5644C30.2952 13.7093 29.9277 14.8897 31.2974 14.7395" fill="black"/>
<path fill-rule="evenodd" clip-rule="evenodd" d="M10.2393 13.0842C10.5874 13.0612 10.9034 12.6958 11.031 12.5017C10.9569 12.2311 10.9095 12.2484 10.7745 12.0497C10.6146 11.8144 10.6859 11.8058 10.3976 11.6414C10.1181 11.7499 10.1475 11.7457 9.9651 11.986C9.53003 12.5589 9.7511 12.4171 10.2393 13.0842" fill="black"/>
<path fill-rule="evenodd" clip-rule="evenodd" d="M19.9994 8.28386L21.1897 8.56568L21.2112 7.57408C21.0075 7.4745 20.3988 7.36305 20.135 7.41731C20.0325 7.69323 19.9608 7.96585 19.9994 8.28386" fill="black"/>
<path fill-rule="evenodd" clip-rule="evenodd" d="M34.8692 25.5647C34.6711 25.0374 34.7554 25.1379 34.8259 24.6377C34.5568 24.6654 34.5685 24.776 34.3053 24.7925C34.024 24.8102 34.0336 24.7224 33.7386 24.6785C33.6943 25.3133 33.7939 25.1481 33.4741 25.5639C33.5699 25.6527 33.5268 25.6238 33.6985 25.713L34.0392 25.9035C34.0466 25.9101 34.0892 26.0372 34.1129 25.981C34.1181 25.9686 34.135 26.0084 34.1474 26.0208C34.3419 25.6411 34.2703 25.588 34.8692 25.5647" fill="black"/>
<path fill-rule="evenodd" clip-rule="evenodd" d="M4.56312 12.2642C4.7201 12.4478 4.93608 12.7049 5.35786 12.5227C5.48604 12.4674 5.76787 12.1663 5.68006 11.8401C5.52038 11.2472 4.44239 11.1918 4.56312 12.2642Z" fill="black"/>
<path fill-rule="evenodd" clip-rule="evenodd" d="M6.95017 17.0523C7.04735 16.5266 7.13318 16.4732 7.1083 16.1764C6.83255 15.9978 6.54195 15.9295 6.17272 15.905C6.0794 16.1384 5.90606 16.4673 5.92879 16.7396C6.12175 16.8661 6.21949 16.8578 6.48119 16.9567L6.56161 16.9961C6.569 16.9994 6.58628 17.011 6.59337 17.0138L6.95017 17.0523Z" fill="black"/>
<path fill-rule="evenodd" clip-rule="evenodd" d="M13.529 1.05691L14.3163 1.07235C14.3746 0.723466 14.5112 0.374815 14.3879 0.038301C13.4723 -0.116234 13.179 0.191648 13.529 1.05691" fill="black"/>
<path fill-rule="evenodd" clip-rule="evenodd" d="M29.0327 3.95186C29.2147 4.17992 29.6008 4.45993 29.8725 4.49268C30.1307 4.02816 30.7302 3.90463 29.556 3.20508C29.3359 3.32913 29.1931 3.59226 29.0859 3.82292L29.0327 3.95186Z" fill="black"/>
<path fill-rule="evenodd" clip-rule="evenodd" d="M17.2854 15.3954C17.4538 15.1016 17.6166 14.9804 17.3083 14.6927C17.077 14.477 16.8416 14.273 16.573 14.2566C16.4161 14.535 16.3112 15.0191 16.3839 15.393L17.2854 15.3953L17.2854 15.3954Z" fill="black"/>
<path fill-rule="evenodd" clip-rule="evenodd" d="M31.9304 17.8063C32.1613 17.7013 31.9634 17.7923 32.134 17.6912C32.615 17.4063 32.6477 17.3454 32.3335 16.9313C32.2721 16.8503 32.2544 16.8172 32.1835 16.7591C31.7685 16.4195 31.4183 16.9639 31.3062 17.2515C31.5428 17.5896 31.5122 17.528 31.9304 17.8063Z" fill="black"/>
<path fill-rule="evenodd" clip-rule="evenodd" d="M25.6715 30.3354C24.7743 30.2739 24.6431 30.8414 25.1476 31.389C25.8785 31.408 26.0684 30.8931 25.6715 30.3354Z" fill="black"/>
<path fill-rule="evenodd" clip-rule="evenodd" d="M30.498 26.8973C30.5344 26.5253 30.6836 26.5042 30.5968 26.118C30.3124 26.0051 29.8957 26.0217 29.5856 26.0686C29.5211 26.4497 29.552 26.5496 29.6738 26.8933L30.498 26.8973Z" fill="black"/>
<path fill-rule="evenodd" clip-rule="evenodd" d="M2.35352 24.2184C2.48133 24.6314 2.32855 24.535 2.71919 24.9687C3.17894 24.9465 3.1163 24.8694 3.46821 24.7984C3.46139 24.4687 3.39119 24.2166 3.28861 23.9729C2.92676 23.9759 2.6355 24.126 2.35352 24.2184Z" fill="black"/>
<path fill-rule="evenodd" clip-rule="evenodd" d="M40.1639 17.9353C40.1537 17.956 40.1455 17.9842 40.1405 18.0007C40.1356 18.0173 40.1257 18.0468 40.1198 18.0671C40.113 18.0901 40.0955 18.1765 40.0873 18.2016C39.9408 18.646 39.9305 18.2705 39.7739 18.6765C39.9359 18.7715 40.1196 18.8603 40.2431 18.934C40.5932 18.7931 40.4745 18.787 40.9218 18.8162L41.0003 17.9999C40.2858 18.1032 40.7872 18.1236 40.1639 17.9353" fill="black"/>
<path fill-rule="evenodd" clip-rule="evenodd" d="M35.0161 19.6265C35.0947 19.8622 35.3047 20.0468 35.4929 20.2314L35.8753 20.0732C36.0093 19.9985 36.0837 19.9424 36.1805 19.864C36.1453 19.521 35.9849 19.282 35.7304 19.0735L35.0161 19.6265Z" fill="black"/>
<path fill-rule="evenodd" clip-rule="evenodd" d="M10.6354 22.8421C10.8044 22.5977 10.9866 22.4666 11.0474 22.131L10.4771 21.8125C10.3436 21.9072 10.2756 21.9619 10.1744 22.0908C9.98833 22.3278 10.0295 22.1593 10.0195 22.5557L10.6354 22.8421Z" fill="black"/>
<path fill-rule="evenodd" clip-rule="evenodd" d="M21.3732 13.5482C21.4582 13.683 21.4116 13.616 21.5095 13.7148C21.7104 13.5037 21.8044 13.5684 22.0608 13.4102C22.1881 13.3316 22.1214 13.373 22.2063 13.2935C22.1421 13.0519 22.0998 12.9622 22.0303 12.7412C21.8306 12.7539 21.4932 12.8019 21.2903 12.8535L21.2411 12.989C21.214 13.1539 21.2193 13.3037 21.3732 13.5482" fill="black"/>
<path fill-rule="evenodd" clip-rule="evenodd" d="M14.8311 31.4698C15.0174 31.2565 15.1001 31.1563 15.0115 30.7635C14.3708 30.389 13.8578 30.852 14.362 31.4967L14.8311 31.4698Z" fill="black"/>
<path fill-rule="evenodd" clip-rule="evenodd" d="M15.4985 4.55053L16.0081 4.90759C16.3121 4.82335 16.4211 4.71581 16.4822 4.427C16.2889 4.17621 16.2224 4.01999 15.7816 3.95874C15.6005 4.22259 15.626 4.15266 15.4985 4.55053" fill="black"/>
<path fill-rule="evenodd" clip-rule="evenodd" d="M23.5088 4.69161C23.5289 4.70151 23.5594 4.69391 23.5705 4.71807C23.5815 4.74181 23.6175 4.73769 23.6328 4.73931C24.0618 4.78559 23.3811 4.76286 23.7624 4.75023C23.7765 4.7499 24.0353 4.7019 24.0998 4.68544C24.3079 4.63234 24.1876 4.71002 24.3393 4.60044C24.5257 4.46599 24.4342 4.54856 24.491 4.34791C24.3591 4.18635 23.9752 3.96211 23.6479 3.97838C23.5987 4.07057 23.5434 4.17296 23.5002 4.32462C23.3924 4.70217 23.5049 4.68284 23.5088 4.69161" fill="black"/>
<path fill-rule="evenodd" clip-rule="evenodd" d="M1.10012 13.9684C1.07403 13.5391 1.0833 13.7154 1.17958 13.3905C0.780427 13.3503 1.07683 13.4305 0.734149 13.4515C0.350895 13.475 0.612402 13.4189 0.285915 13.3836C0.284689 14.0048 0.273677 13.7975 0 14.1089C0.633545 14.2654 0.520702 14.0027 1.10012 13.9684" fill="black"/>
<path fill-rule="evenodd" clip-rule="evenodd" d="M27.5893 17.1813C27.5162 17.6017 27.6003 17.6329 27.7496 17.9254L28.3114 17.7894L28.1951 17.0203C27.9657 17.0125 27.774 17.093 27.5893 17.1813" fill="black"/>
<path fill-rule="evenodd" clip-rule="evenodd" d="M30.8857 9.66201C31.4403 9.71558 31.5112 9.62527 31.9483 9.60049C31.8228 9.29202 31.7098 9.20853 31.4254 8.95178C31.4145 8.94185 31.393 8.92242 31.3763 8.9082C31.3569 8.92064 31.3272 8.91641 31.3187 8.94653C31.2808 9.08144 30.9492 9.09998 30.8857 9.66201" fill="black"/>
<path fill-rule="evenodd" clip-rule="evenodd" d="M9.45907 28.5981C9.74482 28.5023 9.66242 28.6123 9.8126 28.2555C9.46712 28.004 9.38492 28.0853 8.94678 27.9531L8.96799 28.7436L9.45907 28.5981Z" fill="black"/>
<path fill-rule="evenodd" clip-rule="evenodd" d="M27.4975 11.482C28.3841 11.0444 28.1095 11.2764 28.1541 10.9185C27.9129 10.7731 27.6646 10.8386 27.3179 10.8482C27.2986 11.065 27.2572 11.0848 27.4236 11.3864L27.4975 11.482Z" fill="black"/>
<path d="M24 24.5C24.6025 24.5 25.167 24.9576 25.167 25.6113V27.8887C25.167 28.7171 25.8386 29.3887 26.667 29.3887H29.333C29.9355 29.3887 30.5 29.8463 30.5 30.5C30.5 31.1537 29.9355 31.6113 29.333 31.6113H26.667C25.8386 31.6113 25.167 32.2829 25.167 33.1113V35.3887C25.167 36.0424 24.6025 36.5 24 36.5C23.3975 36.5 22.833 36.0424 22.833 35.3887V33.1113C22.833 32.2829 22.1614 31.6113 21.333 31.6113H18.667C18.0645 31.6113 17.5 31.1537 17.5 30.5C17.5 29.8463 18.0645 29.3887 18.667 29.3887H21.333C22.1614 29.3887 22.833 28.7171 22.833 27.8887V25.6113C22.833 24.9576 23.3975 24.5 24 24.5Z" fill="black" stroke="white"/>
</svg>
