<svg width="31" height="31" viewBox="0 0 31 31" fill="none" xmlns="http://www.w3.org/2000/svg">
<path d="M25.672 3.875H5.32829C3.81445 3.875 2.5835 5.03362 2.5835 6.45833V24.5417C2.5835 25.9664 3.81445 27.125 5.32829 27.125H25.672C27.1859 27.125 28.4168 25.9664 28.4168 24.5417V6.45833C28.4168 5.03362 27.1859 3.875 25.672 3.875ZM25.672 24.5417H5.32829C5.25466 24.5417 5.20429 24.521 5.18233 24.521C5.17329 24.521 5.16812 24.5236 5.16683 24.5313L5.15133 6.51775C5.16037 6.50483 5.2185 6.45833 5.32829 6.45833H25.672C25.7741 6.45963 25.8296 6.4945 25.8335 6.46867L25.849 24.4823C25.84 24.4952 25.7818 24.5417 25.672 24.5417Z" fill="black"/>
<path d="M7.75 9.04163H15.5V16.7916H7.75V9.04163ZM16.7917 19.375H7.75V21.9583H23.25V19.375H18.0833H16.7917ZM18.0833 14.2083H23.25V16.7916H18.0833V14.2083ZM18.0833 9.04163H23.25V11.625H18.0833V9.04163Z" fill="black"/>
</svg>
