<svg width="24" height="24" viewBox="0 0 24 24" fill="none" xmlns="http://www.w3.org/2000/svg">
<rect width="24" height="24" fill="white"/>
<g clip-path="url(#clip0_870_4671)">
<rect width="24" height="24" fill="white"/>
<path fill-rule="evenodd" clip-rule="evenodd" d="M15.75 2.25V0.75C15.75 0.335786 16.0858 0 16.5 0C16.9142 0 17.25 0.335786 17.25 0.75V2.25C17.25 2.66421 16.9142 3 16.5 3C16.0858 3 15.75 2.66421 15.75 2.25ZM19.1091 3.84375C19.227 3.9147 19.3624 3.95139 19.5 3.94969C19.7618 3.9501 20.0048 3.81402 20.1413 3.59063L20.8913 2.36156C21.0333 2.1327 21.0417 1.84527 20.9132 1.60852C20.7848 1.37176 20.5393 1.22205 20.27 1.21628C20.0008 1.21052 19.7491 1.34959 19.6106 1.58063L18.8606 2.80875C18.7556 2.97876 18.7228 3.18365 18.7694 3.37796C18.8161 3.57227 18.9383 3.73993 19.1091 3.84375ZM23.5566 5.02406C23.4955 4.83471 23.3618 4.67736 23.1847 4.58663C23.0077 4.49591 22.8018 4.47925 22.6125 4.54031L21.2062 4.995C20.854 5.10763 20.6364 5.46023 20.6937 5.82559C20.751 6.19096 21.0661 6.46001 21.4359 6.45937C21.5142 6.45908 21.592 6.44674 21.6666 6.42281L23.0728 5.96812C23.263 5.90715 23.4211 5.7728 23.5119 5.59487C23.6027 5.41694 23.6188 5.21014 23.5566 5.02031V5.02406ZM20.7441 8.76844C22.4493 11.7015 21.9646 15.4153 19.5637 17.8125C18.7356 20.7066 16.2574 22.8251 13.2697 23.193C10.282 23.5608 7.36388 22.1067 5.85844 19.5L2.57719 13.8159C2.17031 13.1102 2.14289 12.2478 2.50411 11.5177C2.86534 10.7875 3.56745 10.286 4.37531 10.1812L4.00031 9.53063C3.59995 8.83713 3.56574 7.99122 3.90881 7.26767C4.25187 6.54411 4.92844 6.03521 5.71875 5.90625C5.3157 4.79647 5.76599 3.5574 6.7875 2.96531C7.71925 2.42933 8.89191 2.56559 9.67594 3.30094C10.1513 2.6147 10.9448 2.21949 11.779 2.25352C12.6131 2.28754 13.3718 2.74608 13.7897 3.46875L14.9147 5.41781C15.4094 4.77004 16.1951 4.41239 17.0085 4.46475C17.8219 4.51712 18.5553 4.97257 18.9628 5.67844L20.7441 8.76844ZM10.8675 5.15625L11.4234 6.11906C11.6091 6.28859 11.7672 6.48595 11.8922 6.70406L13.0172 8.64937C13.3869 8.16916 13.9212 7.8426 14.5172 7.7325L12.4913 4.21875C12.2324 3.77037 11.659 3.61675 11.2106 3.87562C10.7622 4.13452 10.6086 4.70786 10.8675 5.15625ZM7.19438 5.54531L7.75031 6.50906L7.78031 6.53625C8.14766 6.00437 8.71173 5.64069 9.34781 5.52563L8.81812 4.60781C8.62857 4.2794 8.25984 4.09751 7.88389 4.14696C7.50793 4.19642 7.19879 4.46748 7.10063 4.83375C7.03541 5.07393 7.06917 5.33022 7.19438 5.54531ZM18.1491 17.3034C18.565 15.7664 18.349 14.1268 17.5491 12.75L15.7678 9.66469C15.5162 9.23334 14.9706 9.07492 14.5271 9.30442C14.0836 9.53392 13.8979 10.0708 14.1047 10.5253L15.1753 12.375C15.3824 12.7341 15.2592 13.193 14.9002 13.4002C14.5411 13.6073 14.0821 13.4841 13.875 13.125L10.5938 7.45594C10.3263 7.0325 9.77335 6.89401 9.33793 7.14142C8.90251 7.38884 8.73843 7.93479 8.96531 8.38125L11.2744 12.375C11.4169 12.6074 11.4221 12.8989 11.2879 13.1363C11.1537 13.3736 10.9012 13.5194 10.6286 13.5171C10.356 13.5147 10.1061 13.3646 9.97594 13.125L6.9225 7.84312C6.75622 7.55067 6.44599 7.36973 6.10958 7.36899C5.77316 7.36825 5.46214 7.54783 5.29458 7.83955C5.12702 8.13127 5.12861 8.4904 5.29875 8.78063L8.67375 14.6269C8.88086 14.9857 8.75787 15.4445 8.39906 15.6516C8.04025 15.8587 7.58148 15.7357 7.37437 15.3769L5.49937 12.1294C5.23874 11.6848 4.66814 11.5339 4.22185 11.7916C3.77555 12.0493 3.62092 12.6189 3.87562 13.0669L7.15688 18.7509C8.37021 20.8529 10.7304 22.0169 13.1366 21.7C15.5429 21.3832 17.5212 19.6479 18.1491 17.3034ZM19.4447 9.51469L17.6634 6.42938C17.4028 5.9848 16.8322 5.83394 16.3859 6.09162C15.9396 6.34929 15.785 6.91888 16.0397 7.36688L16.5938 8.32781C16.7793 8.49811 16.9374 8.69607 17.0625 8.91469L18.8438 12C19.3442 12.865 19.6671 13.8212 19.7934 14.8125C20.51 13.0888 20.381 11.1295 19.4447 9.51469Z" fill="#4A699C"/>
</g>
<defs>
<clipPath id="clip0_870_4671">
<rect width="24" height="24" fill="white"/>
</clipPath>
</defs>
</svg>
