<svg width="30" height="27" viewBox="0 0 30 27" fill="none" xmlns="http://www.w3.org/2000/svg">
<path d="M13.505 0.142502C11.3573 0.485735 7.81885 1.58694 7.81885 1.91587C7.81885 1.97308 7.95968 2.159 8.13572 2.33061L8.43499 2.65955L9.96656 2.03028C12.5016 1.00058 13.9627 0.728858 17.061 0.74316C20.1946 0.757461 21.6381 1.01489 24.0851 2.01598C24.9477 2.37352 25.7047 2.63094 25.7399 2.58804C26.0568 2.33061 22.0782 0.757461 20.1418 0.371324C18.2053 -0.0148137 15.1774 -0.114923 13.505 0.142502Z" fill="white"/>
<path d="M5.0023 0.685988C5.0023 0.786098 6.23459 2.15903 7.73094 3.73218C9.49136 5.57706 10.442 6.69257 10.4244 6.87849C10.3012 7.59356 9.75542 7.19312 6.95636 4.30424C4.49177 1.7872 3.57636 1.01492 3.59396 1.47256C3.59396 1.54407 4.82625 2.93131 6.32261 4.59027C7.81896 6.23493 9.03365 7.69367 8.99844 7.80808C8.98084 7.92249 8.8048 8.0369 8.61115 8.0655C8.32948 8.09411 7.62532 7.43624 5.4424 5.16232C2.94261 2.55947 2.18563 1.91591 2.18563 2.35925C2.18563 2.44506 3.38271 3.83229 4.82625 5.46265C6.2874 7.07871 7.46688 8.49455 7.46688 8.59466C7.46688 8.85208 7.04438 9.0952 6.83313 8.98079C6.7275 8.92359 5.47761 7.59356 4.03407 6.02041C0.988544 2.65958 1.18219 2.8455 0.953335 3.03142C0.759689 3.18873 6.14657 9.78167 7.15 10.6255C7.83657 11.1975 8.61115 11.4263 9.70261 11.3548L10.53 11.3119L12.5017 13.6001C13.6107 14.8587 14.5614 15.9027 14.6494 15.9313C14.8606 15.9885 15.9169 14.9159 15.9169 14.6727C15.9169 14.5726 15.0191 13.5715 13.91 12.4274L11.9031 10.368L12.3256 9.76737C12.7833 9.1095 12.8714 8.26572 12.5193 7.62216C12.2376 7.09301 5.49521 0.528673 5.23115 0.528673C5.10792 0.514372 5.0023 0.600181 5.0023 0.685988Z" fill="white"/>
<path d="M28.6796 1.54403C26.972 2.04458 24.3138 3.97526 21.638 6.66392C19.7367 8.59461 16.7968 11.8839 16.7968 12.0985C16.7968 12.1843 16.9905 12.5704 17.2369 12.9422L17.6594 13.643L12.6774 18.8487C9.93119 21.7233 7.55463 24.226 7.37859 24.4405C7.11453 24.7695 7.09692 24.8839 7.29057 25.2557C7.67786 26.028 9.05098 26.5429 9.73755 26.1996C9.86078 26.1424 10.6882 25.1842 11.586 24.0687C12.4838 22.9532 16.9905 17.4186 21.6028 11.7695C26.2327 6.13477 30 1.48682 30 1.44392C30 1.32951 29.243 1.38671 28.6796 1.54403Z" fill="white"/>
<path d="M14.5085 5.51985C13.4522 5.67717 12.3432 6.0061 12.2727 6.17771C12.2551 6.24922 12.3432 6.43514 12.484 6.57815C12.7481 6.86418 12.7657 6.86418 14.0332 6.52095C15.7408 6.0776 17.6244 5.9918 19.0856 6.30643C20.8108 6.67826 21.022 6.70686 21.022 6.56385C21.022 6.40654 20.4411 6.16341 19.1032 5.79158C17.9941 5.47695 15.6527 5.33393 14.5085 5.51985Z" fill="white"/>
<path d="M1.51645 7.47913C0.336966 9.49562 0.0200909 10.6826 0.00248669 13.0996C-0.0151175 14.83 0.0552992 15.3735 0.389778 16.3889C0.935508 18.0479 2.30863 20.2503 3.59374 21.4945C4.7028 22.5814 6.62166 23.9686 7.00895 23.9686C7.14978 23.9686 7.37863 23.8113 7.53707 23.6254C7.80114 23.2822 7.78353 23.2679 6.78009 22.5528C4.63238 21.0368 2.76634 18.5627 1.99176 16.1744C1.21717 13.8146 1.51645 10.7541 2.73113 8.35151C3.0128 7.79376 3.24165 7.27891 3.24165 7.2074C3.24165 7.05009 2.50228 6.23491 2.36145 6.23491C2.29103 6.23491 1.92134 6.79266 1.51645 7.47913Z" fill="white"/>
<path d="M6.8679 11.5121C6.60383 11.8554 6.56862 13.6716 6.83269 14.6298C7.25519 16.2745 8.02977 17.4329 9.50852 18.6342C10.2127 19.2063 10.9169 19.6782 11.0577 19.6782C11.2161 19.6782 11.4626 19.5066 11.6386 19.3064C11.9379 18.9346 11.9203 18.9346 11.1985 18.4483C9.4205 17.247 8.31144 15.1876 8.32904 13.0853V11.8554L7.7129 11.6265C7.00873 11.3405 6.99113 11.3405 6.8679 11.5121Z" fill="white"/>
<path d="M17.4482 17.5758C17.0961 18.0191 16.7969 18.4195 16.7969 18.4624C16.7969 18.7056 23.4513 26.1709 23.7505 26.2567C23.9442 26.3139 24.3139 26.2996 24.5779 26.2281C25.1589 26.0565 25.951 25.3414 25.951 24.9839C25.951 24.7837 21.5324 20.1357 18.6805 17.3326L18.1172 16.7749L17.4482 17.5758Z" fill="white"/>
<path d="M11.1458 25.27C10.8994 25.6705 11.0754 25.7563 12.5718 26.028C15.2652 26.5143 18.2931 26.4428 20.7577 25.8135C21.8316 25.5561 22.1132 25.3702 21.7611 25.1985C21.6731 25.1556 21.145 25.2271 20.5641 25.3702C18.9093 25.742 15.0011 25.6991 13.1527 25.2843C11.3747 24.8982 11.3923 24.8982 11.1458 25.27Z" fill="white"/>
</svg>
