<svg width="34" height="29" viewBox="0 0 34 29" fill="none" xmlns="http://www.w3.org/2000/svg">
<path d="M32.331 10.3942L25.0185 17.7067C24.7898 17.9354 24.4797 18.0639 24.1562 18.0639C23.8328 18.0639 23.5227 17.9354 23.294 17.7067C23.0653 17.478 22.9368 17.1678 22.9368 16.8444C22.9368 16.521 23.0653 16.2108 23.294 15.9822L28.527 10.7507H22.4805C19.5077 10.7499 16.619 11.7371 14.2686 13.5572C11.9182 15.3773 10.2394 17.927 9.49621 20.8054C9.4154 21.1185 9.21351 21.3867 8.93496 21.551C8.6564 21.7153 8.32399 21.7622 8.01086 21.6813C7.69773 21.6005 7.42952 21.3986 7.26524 21.1201C7.10097 20.8415 7.05407 20.5091 7.13488 20.196C8.01179 16.7934 9.99553 13.7792 12.7737 11.6279C15.5519 9.47663 18.9667 8.31051 22.4805 8.31318H28.53L23.294 3.08169C23.1807 2.96846 23.0909 2.83403 23.0296 2.68608C22.9684 2.53814 22.9368 2.37957 22.9368 2.21943C22.9368 2.05929 22.9684 1.90072 23.0296 1.75277C23.0909 1.60482 23.1807 1.4704 23.294 1.35716C23.5227 1.12847 23.8328 1 24.1562 1C24.3164 1 24.475 1.03154 24.6229 1.09282C24.7709 1.15411 24.9053 1.24393 25.0185 1.35716L32.331 8.66966C32.4443 8.78285 32.5342 8.91727 32.5956 9.06522C32.6569 9.21317 32.6885 9.37177 32.6885 9.53193C32.6885 9.69209 32.6569 9.85068 32.5956 9.99864C32.5342 10.1466 32.4443 10.281 32.331 10.3942ZM26.5938 25.3757H3.4375V7.09443C3.4375 6.7712 3.3091 6.4612 3.08054 6.23264C2.85198 6.00408 2.54198 5.87568 2.21875 5.87568C1.89552 5.87568 1.58552 6.00408 1.35696 6.23264C1.1284 6.4612 1 6.7712 1 7.09443V26.5944C1 26.9177 1.1284 27.2277 1.35696 27.4562C1.58552 27.6848 1.89552 27.8132 2.21875 27.8132H26.5938C26.917 27.8132 27.227 27.6848 27.4555 27.4562C27.6841 27.2277 27.8125 26.9177 27.8125 26.5944C27.8125 26.2712 27.6841 25.9612 27.4555 25.7326C27.227 25.5041 26.917 25.3757 26.5938 25.3757Z" fill="#FEFCF6" stroke="white" stroke-width="2"/>
</svg>
