<svg width="37" height="34" viewBox="0 0 37 34" fill="none" xmlns="http://www.w3.org/2000/svg">
<path d="M16.4766 26.4297C16.4766 25.9279 16.6693 25.4852 17.0547 25.1016C17.4401 24.7179 17.9219 24.526 18.5 24.526C19.0781 24.526 19.5599 24.7179 19.9453 25.1016C20.3307 25.4852 20.5234 25.9279 20.5234 26.4297C20.5234 26.9314 20.3307 27.3741 19.9453 27.7578C19.5599 28.1415 19.0781 28.3333 18.5 28.3333C17.9219 28.3333 17.4401 28.1415 17.0547 27.7578C16.6693 27.3741 16.4766 26.9314 16.4766 26.4297ZM16.4766 0H18.5C23.6389 0 28.0069 1.65278 31.6042 4.95833C35.2014 8.26389 37 12.2778 37 17C37 21.7222 35.2014 25.7361 31.6042 29.0417C28.0069 32.3472 23.6389 34 18.5 34C13.3611 34 8.99306 32.3472 5.39583 29.0417C1.79861 25.7361 0 21.7222 0 17C0 14.2847 0.65842 11.7318 1.97526 9.34115C3.2921 6.95052 5.10677 4.98785 7.41927 3.45312V3.36458L21.3906 16.2031L18.5 18.8594L7.32292 8.67708C5.20312 11.0972 4.14323 13.8715 4.14323 17C4.14323 20.6597 5.54036 23.7734 8.33463 26.3411C11.1289 28.9089 14.5174 30.1927 18.5 30.1927C22.4826 30.1927 25.8711 28.9089 28.6654 26.3411C31.4596 23.7734 32.8568 20.6597 32.8568 17C32.8568 13.6944 31.6845 10.8021 29.3398 8.32292C26.9952 5.84375 24.0564 4.36806 20.5234 3.89583V7.52604H16.4766V0ZM30.8333 17C30.8333 17.5312 30.6246 17.974 30.207 18.3281C29.7895 18.6823 29.3077 18.8594 28.7617 18.8594C28.2157 18.8594 27.7339 18.6823 27.3164 18.3281C26.8989 17.974 26.6901 17.5312 26.6901 17C26.6901 16.4688 26.8989 16.026 27.3164 15.6719C27.7339 15.3177 28.2157 15.1406 28.7617 15.1406C29.3077 15.1406 29.7895 15.3177 30.207 15.6719C30.6246 16.026 30.8333 16.4688 30.8333 17ZM6.16667 17C6.16667 16.4688 6.37543 16.026 6.79297 15.6719C7.2105 15.3177 7.69227 15.1406 8.23828 15.1406C8.78429 15.1406 9.26606 15.3177 9.68359 15.6719C10.1011 16.026 10.3099 16.4688 10.3099 17C10.3099 17.5312 10.1011 17.974 9.68359 18.3281C9.26606 18.6823 8.78429 18.8594 8.23828 18.8594C7.69227 18.8594 7.2105 18.6823 6.79297 18.3281C6.37543 17.974 6.16667 17.5312 6.16667 17Z" fill="white"/>
</svg>
